<?xml version="1.0" encoding="UTF-8" standalone="no"?>
<!-- Created with Inkscape (http://www.inkscape.org/) -->
<svg xmlns:dc="http://purl.org/dc/elements/1.1/" xmlns:cc="http://creativecommons.org/ns#" xmlns:rdf="http://www.w3.org/1999/02/22-rdf-syntax-ns#" xmlns:svg="http://www.w3.org/2000/svg" xmlns="http://www.w3.org/2000/svg" xmlns:sodipodi="http://sodipodi.sourceforge.net/DTD/sodipodi-0.dtd" xmlns:inkscape="http://www.inkscape.org/namespaces/inkscape" width="103.35688mm" height="103.35013mm" viewBox="0 0 103.35688 103.35013" version="1.1" id="svg157" inkscape:version="0.92.4 (5da689c313, 2019-01-14)" sodipodi:docname="l-Sleeping.svg">
  <title id="title185">Sleeping</title>
  <defs id="defs151"/>
  <sodipodi:namedview id="base" pagecolor="#ffffff" bordercolor="#666666" borderopacity="1.0" inkscape:pageopacity="0.0" inkscape:pageshadow="2" inkscape:zoom="0.35" inkscape:cx="280.89245" inkscape:cy="335.31397" inkscape:document-units="mm" inkscape:current-layer="layer1" showgrid="false" fit-margin-top="0" fit-margin-left="0" fit-margin-right="0" fit-margin-bottom="0" inkscape:window-width="1920" inkscape:window-height="986" inkscape:window-x="-11" inkscape:window-y="-11" inkscape:window-maximized="1"/>
  <metadata id="metadata154">
    <rdf:RDF>
      <cc:Work rdf:about="">
        <dc:format>image/svg+xml</dc:format>
        <dc:type rdf:resource="http://purl.org/dc/dcmitype/StillImage"/>
        <dc:title>Sleeping</dc:title>
        <cc:license rdf:resource="http://creativecommons.org/publicdomain/zero/1.0/"/>
      </cc:Work>
      <cc:License rdf:about="http://creativecommons.org/publicdomain/zero/1.0/">
        <cc:permits rdf:resource="http://creativecommons.org/ns#Reproduction"/>
        <cc:permits rdf:resource="http://creativecommons.org/ns#Distribution"/>
        <cc:permits rdf:resource="http://creativecommons.org/ns#DerivativeWorks"/>
      </cc:License>
    </rdf:RDF>
  </metadata>
  <g inkscape:label="Layer 1" inkscape:groupmode="layer" id="layer1" transform="translate(-31.513873,-134.20169)">
    <path style="fill:#b7c2c8;fill-opacity:1;stroke-width:1" d="m 85.528895,237.47879 c 0.50577,-0.0316 1.1465,-0.0721 1.42385,-0.0901 2.59922,-0.16802 6.25082,-0.75238 8.92871,-1.42883 0.32629,-0.0824 0.69818,-0.17526 0.82641,-0.2063 0.51303,-0.1242 2.13646,-0.61512 3.11779,-0.9428 5.992135,-2.00091 11.609505,-5.16613 16.526995,-9.31249 1.47884,-1.24693 1.92553,-1.65755 3.32145,-3.05313 1.47044,-1.47011 2.25959,-2.33067 3.23298,-3.52553 0.27614,-0.33897 0.59797,-0.72952 0.71519,-0.86787 0.45166,-0.53313 1.79139,-2.36205 2.51087,-3.42769 2.20999,-3.27329 4.06853,-6.85217 5.32089,-10.24617 0.16255,-0.4405 0.32308,-0.86654 0.35673,-0.94675 0.0584,-0.13919 0.46272,-1.3535 0.70207,-2.10859 0.37511,-1.18338 0.85595,-3.06543 1.22014,-4.77582 0.33284,-1.56318 0.71607,-4.10877 0.85741,-5.69539 0.0334,-0.37524 0.0863,-0.96258 0.11751,-1.30519 0.0872,-0.95783 0.19111,-3.88285 0.15578,-4.38622 -0.0173,-0.24691 -0.0463,-0.87608 -0.0644,-1.39816 -0.15102,-4.35199 -1.06085,-9.46571 -2.48051,-13.94183 -2.11675,-6.67398 -5.84564,-13.08025 -10.86044,-18.65833 -3.40198,-3.78411 -7.82222,-7.34497 -12.55998,-10.11807 -1.50339,-0.87997 -3.69944,-1.97948 -5.423,-2.71518 -2.54299,-1.08547 -5.684305,-2.11824 -8.157445,-2.68194 -4.89211,-1.11503 -9.87214,-1.60954 -14.06049,-1.39619 -2.92983,0.14924 -6.74992,0.62735 -8.81005,1.10263 -0.19578,0.0452 -0.60958,0.13788 -0.91957,0.20602 -1.78425,0.39222 -3.94149,1.01282 -5.66572,1.62993 -0.42419,0.15182 -0.84089,0.29803 -0.92599,0.32493 -0.19703,0.0622 -1.756,0.69576 -2.45565,0.99787 -2.04924,0.88488 -4.48563,2.16034 -6.34196,3.32004 -3.04094,1.89976 -5.39498,3.70577 -8.37069,6.42195 -0.74434,0.67942 -2.33694,2.3226 -3.15627,3.25649 -4.00688,4.56719 -6.96357,9.25051 -9.12487,14.45357 -0.89806,2.16197 -1.62073,4.33713 -2.31602,6.97094 -0.48247,1.82761 -1.09292,5.16897 -1.27356,6.97092 -0.26028,2.5963 -0.27542,2.80719 -0.35148,4.89447 -0.0268,0.73417 -0.039,1.54844 -0.0272,1.80947 0.13313,2.94319 0.2409,4.2862 0.49988,6.22933 0.55727,4.18102 1.6455,8.38256 3.17311,12.25102 3.02575,7.66224 8.2957,14.9321 14.70043,20.27912 2.49999,2.08713 5.06123,3.88586 7.7238,5.42434 2.16332,1.25 5.09699,2.6287 7.50486,3.52697 0.59624,0.22243 3.00609,1.01952 3.47063,1.14795 2.51255,0.69466 4.90618,1.21526 6.79293,1.47741 0.24473,0.034 0.61849,0.0867 0.83058,0.11718 0.2121,0.0304 0.51911,0.0699 0.68226,0.0876 0.16315,0.0177 0.65705,0.0723 1.09755,0.12123 2.50925,0.27888 5.20226,0.35293 7.53452,0.20718 z" id="path180" inkscape:connector-curvature="0"/>
    <path style="fill:#000000;stroke-width:1.00000012" d="m 62.427435,156.02648 c -0.009,0 -0.30795,0.32589 -0.66406,0.72421 -0.35612,0.39832 -0.83438,0.92657 -1.06279,1.17391 -0.86717,0.93902 -4.56891,5.05313 -4.58405,5.0947 -0.0139,0.0382 1.90534,1.80649 2.29,2.10993 l 0.14553,0.11483 0.14809,-0.17416 c 0.0815,-0.0958 0.64347,-0.71868 1.24888,-1.38433 0.92065,-1.01226 1.10812,-1.19184 1.14575,-1.09755 0.0248,0.062 0.31135,0.94035 0.63684,1.95188 0.32549,1.01152 0.8455,2.6267 1.1556,3.58928 0.3101,0.96258 0.59654,1.86361 0.6366,2.00228 0.0401,0.13868 0.0932,0.25214 0.11796,0.25214 0.0248,0 0.77479,-0.80631 1.6666,-1.79174 0.89182,-0.98542 1.82819,-2.01994 2.08085,-2.29892 0.25265,-0.27898 0.45956,-0.52648 0.45978,-0.55005 0,-0.0236 -0.18846,-0.50411 -0.41934,-1.06788 -0.23089,-0.56377 -0.52898,-1.29866 -0.66245,-1.63312 -0.13347,-0.33445 -0.26108,-0.6081 -0.28365,-0.6081 -0.0226,0 -0.35498,0.34847 -0.73858,0.77438 -0.38359,0.42591 -0.70575,0.76595 -0.71598,0.75573 -0.0102,-0.0102 -0.47642,-1.43326 -1.0359,-3.16229 -1.42033,-4.38942 -1.54682,-4.77513 -1.56568,-4.77513 z m 13.69816,16.49359 -0.62862,0.69674 c -1.62625,1.80244 -4.19585,4.64496 -4.91579,5.43792 l -0.79824,0.87924 0.20636,0.18575 c 0.11353,0.10219 0.65617,0.59299 1.20578,1.0906 0.5496,0.4976 1.01763,0.90473 1.04019,0.90473 0.0226,0 0.58307,-0.60095 1.24551,-1.33543 0.66245,-0.73449 1.22517,-1.34829 1.25051,-1.36394 0.0253,-0.0157 0.12729,0.2182 0.22653,0.51969 0.20717,0.62936 1.66369,5.16238 2.07702,6.4642 0.15251,0.48032 0.30398,0.86579 0.33661,0.85653 0.0588,-0.0167 3.74202,-4.03979 4.04548,-4.41881 l 0.15793,-0.19722 -0.34044,-0.841 c -0.71931,-1.77696 -1.01272,-2.47238 -1.04331,-2.47238 -0.0175,0 -0.35148,0.35211 -0.74217,0.78249 l -0.71031,0.78248 -0.31691,-0.9753 c -0.31211,-0.96039 -1.28388,-3.96396 -1.85663,-5.73861 -0.161,-0.49886 -0.32579,-0.98594 -0.36615,-1.08236 z m 46.067365,8.89835 v 11.42391 c 0,7.82063 -0.0192,11.41199 -0.0611,11.38614 -0.0336,-0.0208 -0.1926,-0.29979 -0.3533,-0.62004 -0.16071,-0.32024 -0.36376,-0.6385 -0.45121,-0.70728 -0.48534,-0.38178 -1.90742,0.079 -3.59495,1.16487 -0.81169,0.5223 -1.20666,0.70587 -1.31887,0.61273 -0.0393,-0.0326 -0.10639,-0.24045 -0.14913,-0.46187 -0.20005,-1.03628 -0.75589,-2.37927 -1.49569,-3.61349 -0.49964,-0.83358 -0.71316,-1.06607 -1.55837,-1.69685 -0.75742,-0.56526 -1.22137,-0.82501 -1.92396,-1.07739 -1.50167,-0.5394 -3.55189,-0.39103 -4.35636,0.3153 l -0.21761,0.19095 -0.58029,-0.12108 c -0.31922,-0.0666 -0.99421,-0.21535 -1.49998,-0.3307 -0.50576,-0.11536 -1.16471,-0.22703 -1.46428,-0.24809 -0.54453,-0.0383 -0.5447,-0.0383 -0.71829,0.13534 -0.20086,0.20084 -0.30035,0.71186 -0.1934,0.99315 0.0342,0.0899 0.0622,0.26928 0.0622,0.39849 0,0.20061 -0.0238,0.24454 -0.16315,0.30127 -0.0897,0.0365 -0.39007,0.0696 -0.66742,0.0735 -0.27736,0.004 -0.53724,0.028 -0.57752,0.0537 -0.0403,0.0257 -0.11032,0.17221 -0.15561,0.3256 -0.0884,0.29955 -0.10547,0.30676 -0.52374,0.22224 l -0.21866,-0.0441 -0.175315,0.34704 c -0.25842,0.51151 -0.32886,0.55559 -1.08955,0.68284 -0.71619,0.11981 -0.84964,0.17909 -1.07785,0.47867 -0.36129,0.47429 -0.35546,1.19477 0.0155,1.93264 0.21975,0.43707 0.23748,0.51298 0.30278,1.29106 0.0848,1.01072 0.044,1.50676 -0.13789,1.67413 -0.0712,0.0655 -0.60998,0.36231 -1.19732,0.65943 -0.58734,0.29713 -1.10829,0.56932 -1.15768,0.60498 -0.0687,0.0496 -0.21544,0.0157 -0.62294,-0.14392 -0.29322,-0.11483 -1.17386,-0.45337 -1.95698,-0.75225 -0.78311,-0.29887 -2.17136,-0.8455 -3.085,-1.21481 -2.61631,-1.05756 -3.88679,-1.39679 -6.31832,-1.68699 -1.89591,-0.22627 -2.85401,-0.26987 -5.93269,-0.26987 -2.85861,-6e-5 -4.36883,0.047 -7.68284,0.23974 -2.08124,0.12103 -2.39815,0.14105 -3.74165,0.23696 -0.6548,0.0468 -1.60255,0.1121 -2.10611,0.14519 -2.21669,0.14565 -5.56415,0.39854 -7.88643,0.59582 -1.26278,0.10728 -1.89815,0.16436 -3.94525,0.35399 -0.35892,0.0333 -1.41346,0.14157 -2.34341,0.24079 -0.92995,0.0992 -1.93109,0.20581 -2.22476,0.23684 -1.3084,0.13825 -6.08939,0.75735 -6.12678,0.79338 -0.0283,0.0272 0.69784,1.39382 1.26487,2.3805 0.96965,1.68728 2.13812,3.44956 3.28187,4.94951 0.50899,0.66751 1.87265,2.35828 1.96184,2.4324 0.0196,0.0163 0.2088,0.22979 0.42027,0.4745 1.87787,2.17305 4.27868,4.37091 6.96976,6.38032 5.51243,4.11609 11.47583,6.82003 18.11152,8.21226 2.21355,0.46442 4.94713,0.82496 7.16176,0.94471 2.20706,0.11934 4.67302,0.0573 7.00058,-0.17636 7.40087,-0.74289 14.032145,-2.98068 20.111835,-6.78691 8.44784,-5.28883 15.14219,-13.3553 18.73503,-22.57506 2.0101,-5.15821 3.13036,-11.16449 3.14247,-16.84885 0.002,-0.99521 -0.0128,-1.98301 -0.0331,-2.1951 -0.0203,-0.2121 -0.069,-0.81946 -0.10822,-1.34969 l -0.0713,-0.96406 h -3.63899 z m -29.561615,2.70818 -0.21414,0.23383 c -0.27269,0.29784 -1.96595,2.16981 -4.27791,4.72924 -0.99521,1.10174 -1.80947,2.02903 -1.80947,2.06068 0,0.0701 2.3554,2.19955 2.40923,2.17818 0.021,-0.008 0.32851,-0.33754 0.68331,-0.73162 1.27113,-1.41186 1.76792,-1.95341 1.8075,-1.97065 0.0221,-0.01 0.19208,0.45756 0.37775,1.03822 0.18565,0.58065 0.6137,1.91003 0.95131,2.95418 0.3376,1.04416 0.75614,2.34515 0.93,2.89115 0.17385,0.546 0.33325,0.99305 0.35422,0.99373 0.0414,0.001 4.16293,-4.54559 4.19147,-4.6238 0.024,-0.0657 -1.308,-3.32497 -1.35884,-3.32497 -0.0225,0 -0.35406,0.34799 -0.73683,0.77333 -0.38279,0.42534 -0.70355,0.76573 -0.71274,0.75642 -0.0192,-0.0194 -0.57931,-1.73391 -1.44957,-4.43677 -0.33094,-1.02784 -0.72396,-2.24059 -0.87345,-2.69498 z" id="path178" inkscape:connector-curvature="0"/>
  </g>
</svg>